Coordinates
version=1
nRows=26
nColumns=22
inDegrees=yes

Units are S.I. units (second, meters, Newtons, ...)
If the header above contains a line with 'inDegrees', this indicates whether rotational values are in degrees (yes) or radians (no).

endheader
time	pelvis_tilt	pelvis_list	pelvis_rotation	pelvis_tx	pelvis_ty	pelvis_tz	hip_flexion_r	hip_adduction_r	hip_rotation_r	knee_angle_r	ankle_angle_r	subtalar_angle_r	hip_flexion_l	hip_adduction_l	hip_rotation_l	knee_angle_l	ankle_angle_l	subtalar_angle_l	lumbar_extension	lumbar_bending	lumbar_rotation
      4.58000000	      3.88141534	     -2.37215200	    -88.55488698	      0.53693026	      1.07967680	      0.43575257	      5.36619655	     -3.97766476	     12.34446644	    -51.79119579	      0.51462541	     23.28346035	      4.22337875	      4.81444948	      0.11267532	     -7.19670768	      5.07715299	      3.20979565	     -3.57825421	     -6.13150250	     -3.29242536
      4.59000000	      3.84793254	     -2.38143947	    -88.65059473	      0.53899711	      1.08006938	      0.43962466	      5.95903766	     -3.97373694	     12.25939607	    -51.86250540	      1.22032423	     22.81040603	      3.93269524	      4.90114248	      0.06691934	     -7.10064562	      5.20503536	      3.00923150	     -3.68998693	     -6.12149656	     -3.55177239
      4.60000000	      3.80824588	     -2.38947434	    -88.74486412	      0.54100913	      1.08044660	      0.44342470	      6.53495707	     -3.97940952	     12.11600112	    -51.81029731	      1.93752549	     22.09439263	      3.64158293	      4.97906127	      0.04881650	     -6.99298701	      5.29619958	      2.81891551	     -3.79503450	     -6.10278843	     -3.79835569
      4.61000000	      3.81401589	     -2.40424473	    -88.81323901	      0.54304265	      1.08079292	      0.44713231	      7.08905404	     -4.06662290	     11.87896582	    -51.65303118	      2.68551225	     21.26655468	      3.35695616	      5.10731871	      0.03867094	     -6.90079708	      5.37918366	      2.64179120	     -3.91297001	     -6.12957538	     -4.07247567
      4.62000000	      3.83224305	     -2.41918849	    -88.86213793	      0.54508165	      1.08111039	      0.45078189	      7.62230893	     -4.20268773	     11.53754598	    -51.38268966	      3.44800608	     20.26761213	      3.07965151	      5.24941278	      0.05016338	     -6.81605412	      5.44109704	      2.44989028	     -4.02712140	     -6.16538909	     -4.33858413
      4.63000000	      3.86556206	     -2.43732604	    -88.89534164	      0.54711370	      1.08139985	      0.45436870	      8.13001552	     -4.38869416	     11.09923115	    -51.00436223	      4.21886530	     19.13620469	      2.81073274	      5.40762832	      0.08375031	     -6.74868514	      5.48791806	      2.24451688	     -4.14290933	     -6.21523382	     -4.59168648
      4.64000000	      3.92695616	     -2.45156969	    -88.90709832	      0.54914865	      1.08165613	      0.45790572	      8.61175440	     -4.63280514	     10.57950904	    -50.52109704	      4.98647086	     17.93654662	      2.54796992	      5.59664523	      0.14145229	     -6.67960183	      5.50205542	      2.03789536	     -4.25214457	     -6.28960003	     -4.88910989
      4.65000000	      3.99587851	     -2.47064682	    -88.90521723	      0.55116869	      1.08187944	      0.46137877	      9.06284778	     -4.91540517	      9.96669193	    -49.94393011	      5.73851527	     16.62742240	      2.29237905	      5.79301300	      0.21469830	     -6.62899529	      5.51997060	      1.81425987	     -4.36580624	     -6.36864914	     -5.16482332
      4.66000000	      4.06587769	     -2.48930310	    -88.89399070	      0.55315012	      1.08207885	      0.46481703	      9.47553422	     -5.21688158	      9.29152494	    -49.26419228	      6.46780903	     15.29384750	      2.04385452	      5.98924251	      0.28768031	     -6.58586905	      5.54078862	      1.59093218	     -4.47322848	     -6.44634640	     -5.44189233
      4.67000000	      4.12629743	     -2.51242983	    -88.88316201	      0.55506137	      1.08226041	      0.46823124	      9.84375789	     -5.51648607	      8.57276759	    -48.49113079	      7.17452921	     13.94245461	      1.79579240	      6.17213407	      0.34641322	     -6.54812868	      5.58571858	      1.36721057	     -4.57580945	     -6.51289518	     -5.70858009
      4.68000000	      4.17648537	     -2.54312372	    -88.86497539	      0.55690836	      1.08243791	      0.47162010	     10.15840398	     -5.80610495	      7.81905417	    -47.62745099	      7.85464013	     12.60772988	      1.54453565	      6.34124875	      0.39289320	     -6.51304345	      5.65070474	      1.15024433	     -4.67971804	     -6.56802115	     -5.96126131
      4.69000000	      4.20568110	     -2.58644606	    -88.84921689	      0.55866213	      1.08263058	      0.47499745	     10.41066752	     -6.06327815	      7.05315083	    -46.67568813	      8.51394220	     11.31712584	      1.28612295	      6.48389347	      0.42089205	     -6.48492603	      5.72129550	      0.94348148	     -4.78429367	     -6.60366204	     -6.18096272
      4.70000000	      4.22058909	     -2.63985348	    -88.82243802	      0.56032799	      1.08283625	      0.47835519	     10.60314813	     -6.29058432	      6.27628447	    -45.64991567	      9.15231152	     10.10209269	      1.01687026	      6.60525717	      0.44519641	     -6.45026231	      5.79352245	      0.74997132	     -4.89264089	     -6.62617197	     -6.38894841
      4.71000000	      4.22075576	     -2.70699178	    -88.78510870	      0.56190371	      1.08305877	      0.48167112	     10.73540726	     -6.48294425	      5.49697602	    -44.56466424	      9.77227494	      8.99397649	      0.74355391	      6.70510115	      0.47669095	     -6.43093260	      5.87103449	      0.56953055	     -5.00971475	     -6.63866620	     -6.55942852
      4.72000000	      4.20077210	     -2.78501637	    -88.77094362	      0.56331587	      1.08329147	      0.48496932	     10.81414630	     -6.61140941	      4.78921100	    -43.43059016	     10.38439850	      7.94560011	      0.44985408	      6.77385349	      0.46340668	     -6.38867511	      5.97370929	      0.38702247	     -5.12503888	     -6.63457895	     -6.70801184
      4.73000000	      4.16857869	     -2.86329984	    -88.72367811	      0.56466814	      1.08351787	      0.48816394	     10.85679542	     -6.70723614	      4.07453125	    -42.27440801	     10.97276842	      7.07491104	      0.17756970	      6.82365902	      0.49599150	     -6.38003768	      6.08048463	      0.22976784	     -5.24573466	     -6.62419171	     -6.83081668
      4.74000000	      4.11863827	     -2.94331135	    -88.69905833	      0.56586329	      1.08374328	      0.49131633	     10.86580693	     -6.73602595	      3.45865882	    -41.10358112	     11.55609106	      6.26068041	     -0.10657945	      6.84455756	      0.48838039	     -6.34341926	      6.18828788	      0.07744178	     -5.35720184	     -6.59848869	     -6.93618045
      4.75000000	      4.05835820	     -3.01606820	    -88.65865611	      0.56697884	      1.08394571	      0.49437012	     10.85867132	     -6.72653999	      2.88082784	    -39.94504513	     12.12021855	      5.58849532	     -0.36610509	      6.84749411	      0.50770260	     -6.33128842	      6.31225642	     -0.04967953	     -5.46248329	     -6.56755595	     -7.01265550
      4.76000000	      3.98886528	     -3.07799837	    -88.61395941	      0.56799197	      1.08412015	      0.49736116	     10.84174504	     -6.67543005	      2.36678156	    -38.81004861	     12.66801862	      5.05204662	     -0.60235826	      6.83279385	      0.53774256	     -6.33731073	      6.47018076	     -0.15024081	     -5.54847340	     -6.53292760	     -7.08063431
      4.77000000	      3.91677075	     -3.14196918	    -88.58093536	      0.56892053	      1.08429173	      0.50030969	     10.80188631	     -6.58650759	      1.95469939	    -37.70251977	     13.19999796	      4.54802601	     -0.84853791	      6.80953573	      0.54861614	     -6.32005469	      6.61129379	     -0.22806270	     -5.63036085	     -6.49432009	     -7.12128345
      4.78000000	      3.84196231	     -3.18510862	    -88.53618146	      0.56978678	      1.08440993	      0.50320820	     10.77116467	     -6.47465940	      1.59901481	    -36.64703607	     13.70975570	      4.20074725	     -1.05726660	      6.77745738	      0.56728120	     -6.32888434	      6.82228304	     -0.27634501	     -5.68019540	     -6.45500503	     -7.16324633
      4.79000000	      3.77082975	     -3.24297303	    -88.48833138	      0.57058694	      1.08454547	      0.50606465	     10.70240598	     -6.33956581	      1.33677370	    -35.63038908	     14.20740145	      3.86410888	     -1.27743494	      6.74337220	      0.59868713	     -6.34207397	      7.01796378	     -0.29662710	     -5.74077989	     -6.41980247	     -7.19384524
      4.80000000	      3.70949899	     -3.30691871	    -88.43906241	      0.57131982	      1.08468290	      0.50889747	     10.61292794	     -6.19742713	      1.14506911	    -34.66931938	     14.67935236	      3.56013688	     -1.50326527	      6.71344282	      0.63485964	     -6.35372087	      7.17738196	     -0.28019062	     -5.79777009	     -6.39869255	     -7.20477011
      4.81000000	      3.65413520	     -3.35616280	    -88.37305147	      0.57203435	      1.08477550	      0.51169604	     10.53165652	     -6.05484210	      0.99721220	    -33.78209519	     15.11565530	      3.35511853	     -1.70543978	      6.68615691	      0.67445007	     -6.37812900	      7.39908763	     -0.25518155	     -5.83036798	     -6.37904920	     -7.23778762
      4.82000000	      3.61368530	     -3.40088512	    -88.29804867	      0.57268706	      1.08484153	      0.51444688	     10.44998389	     -5.91842230	      0.89912615	    -32.97127494	     15.52543963	      3.21083043	     -1.88629195	      6.66981745	      0.73507089	     -6.43346704	      7.62829691	     -0.23080702	     -5.85277507	     -6.38166880	     -7.24720742
      4.83000000	      3.57414465	     -3.47099902	    -88.20807910	      0.57331003	      1.08494279	      0.51720012	     10.32129526	     -5.77942499	      0.82147603	    -32.21439056	     15.88552704	      3.05277323	     -2.10675449	      6.64908360	      0.81101086	     -6.46551254	      7.82272838	     -0.18920623	     -5.89437244	     -6.37897659	     -7.27154755
